<?xml version="1.0" standalone="no"?>
<!DOCTYPE svg PUBLIC "-//W3C//DTD SVG 20010904//EN"
 "http://www.w3.org/TR/2001/REC-SVG-20010904/DTD/svg10.dtd">
<svg version="1.0" xmlns="http://www.w3.org/2000/svg"
 width="512.000000pt" height="512.000000pt" viewBox="0 0 512.000000 512.000000"
 preserveAspectRatio="xMidYMid meet">
<metadata>
Created by potrace 1.11, written by Peter Selinger 2001-2013
</metadata>
<g transform="translate(0.000000,512.000000) scale(0.100000,-0.100000)"
fill="#000000" stroke="none">
<path d="M2385 5030 c-770 -57 -1467 -469 -1898 -1120 -147 -223 -282 -541
-341 -806 -81 -358 -81 -740 0 -1098 77 -345 252 -710 474 -991 150 -190 379
-398 590 -538 225 -148 561 -290 820 -345 376 -81 788 -74 1143 18 339 88 619
224 912 443 103 78 364 339 442 442 219 293 355 573 443 912 92 355 99 767 18
1143 -72 339 -255 723 -478 1005 -90 114 -268 293 -385 388 -354 286 -787 472
-1235 531 -148 20 -366 26 -505 16z m274 -825 c17 -8 38 -33 49 -57 11 -24
257 -605 546 -1291 553 -1312 549 -1300 510 -1355 -34 -49 -109 -66 -166 -36
-39 20 -13 -38 -554 1246 -247 586 -451 1065 -453 1063 -2 -2 -228 -511 -503
-1132 -275 -620 -509 -1138 -520 -1150 -73 -78 -208 -26 -208 80 0 32 114 298
549 1281 302 683 556 1257 564 1276 32 79 115 112 186 75z m328 -1581 c15 -12
34 -38 42 -59 20 -51 0 -110 -48 -142 -34 -23 -36 -23 -388 -23 -385 0 -392 1
-428 57 -23 35 -24 101 -1 135 37 57 48 58 438 55 345 -2 357 -3 385 -23z
m312 -934 c104 -29 129 -159 42 -217 l-34 -23 -747 0 -747 0 -34 23 c-84 57
-62 187 37 217 41 12 1441 12 1483 0z"/>
</g>
</svg>
